# xmcd
#
# Track frame offsets:
#	150
#	12665
#	22846
#	33774
#	50577
#	66086
#	82390
#	101181
#	116310
#	132452
#	154390
#	167209
#	179359
#	196503
# Disc length: 2940 seconds
# Revision: 1
# Processed by: cddbd v1.5PL3 Copyright (c) Steve Scherf et al.
#
# Submitted via: libkcddb 0.10
#
DISCID=bc0b7a0e
DTITLE=Blair Harvey - Burnin Down Religion
DYEAR=1900
DGENRE=
TTITLE0=Bordertown Blues
TTITLE1=Early in the Morning (In the Key of Elvis)
TTITLE2=Burnin' Down Religion
TTITLE3=Dig My Grave
TTITLE4=Factory Blues
TTITLE5=1st World Blues
TTITLE6=Pocket Full of Holes
TTITLE7=Nothin' Tastes Better
TTITLE8=Sunshine
TTITLE9=Loner's Blues
TTITLE10=Eternal Rest
TTITLE11=Makin' Chairs
TTITLE12=Dozen Beer
TTITLE13=Poor Man
EXTD=
EXTT0=
EXTT1=
EXTT2=
EXTT3=
EXTT4=
EXTT5=
EXTT6=
EXTT7=
EXTT8=
EXTT9=
EXTT10=
EXTT11=
EXTT12=
EXTT13=
PLAYORDER=
